<mxfile host="app.diagrams.net" modified="2024-08-30T14:28:06.238Z" agent="Mozilla/5.0 (Windows NT 10.0; Win64; x64) AppleWebKit/537.36 (KHTML, like Gecko) Chrome/128.0.0.0 Safari/537.36 Edg/128.0.0.0" version="24.2.3" etag="dqJlFuKhCZK7tTyqgc7U" type="github">
  <diagram name="Page-1" id="pINA0JPRZRuCSQSEo8NE">
    <mxGraphModel>
      <root>
        <mxCell id="0" />
        <mxCell id="1" parent="0" />
      </root>
    </mxGraphModel>
  </diagram>
</mxfile>
